<?xml version="1.0" encoding="utf-8"?>
<!-- Generator: Adobe Illustrator 27.5.0, SVG Export Plug-In . SVG Version: 6.00 Build 0)  -->
<svg version="1.1" xmlns="http://www.w3.org/2000/svg" xmlns:xlink="http://www.w3.org/1999/xlink" x="0px" y="0px"
	 viewBox="0 0 500 500" style="enable-background:new 0 0 500 500;" xml:space="preserve">
<g id="BACKGROUND">
	<g>
		<defs>
			<rect id="SVGID_1_" width="500" height="500"/>
		</defs>
		<use xlink:href="#SVGID_1_"  style="overflow:visible;fill:#EBEBEB;"/>
		<clipPath id="SVGID_00000017500913435120053460000000138308311664154015_">
			<use xlink:href="#SVGID_1_"  style="overflow:visible;"/>
		</clipPath>
	</g>
	<rect style="fill:#383838;" width="500" height="500"/>
</g>
<g id="OBJECTS">
	<g>
		<g>
			
				<text transform="matrix(1 0 0 1 87.5366 265.7876)" style="fill:#FFFFFF; font-family:'Roboto-Bold'; font-size:113.466px; letter-spacing:6;">40</text>
			<g>
				<rect x="95.815" y="266.852" style="fill:#F99694;" width="208.158" height="0.784"/>
			</g>
			
				<text transform="matrix(0.9641 -0.2656 0.2656 0.9641 221.6364 256.4757)" style="fill:#FFFFFF; font-family:'Roboto-Bold'; font-size:113.4657px; letter-spacing:6;">4</text>
		</g>
		<text transform="matrix(1 0 0 1 92.7788 288.9921)"><tspan x="0" y="0" style="fill:#F99694; font-family:'OpenSans-Semibold'; font-size:13.4632px; letter-spacing:1;">THE PAGE YOU’RE LOOKING</tspan><tspan x="0" y="16.156" style="fill:#F99694; font-family:'OpenSans-Semibold'; font-size:13.4632px; letter-spacing:1;">FOR DOESN’T EXIST.</tspan></text>
	</g>
	<g>
		<g>
			<rect x="153.343" y="360.063" style="fill:#F99694;" width="193.314" height="42.758"/>
		</g>
		<text transform="matrix(1 0 0 1 194.0908 384.8652)" style="fill:#FFFFFF; font-family:'OpenSans'; font-size:9.7937px;">Go back to homepage</text>
	</g>
	<g>
		<path style="fill:#2B2B2B;" d="M429.463,306.85c0,5.42-24.299,9.813-54.275,9.813c-29.975,0-54.274-4.394-54.274-9.813
			c0-5.42,24.3-9.814,54.274-9.814C405.164,297.036,429.463,301.43,429.463,306.85z"/>
		<g>
			<g>
				<path style="fill:#FFFFFF;" d="M250.801,260.508c2.489,1.029,4.979,2.061,7.469,3.09c0.698,0.289,1.002-0.848,0.312-1.135
					c-2.489-1.029-4.979-2.059-7.467-3.089C250.415,259.085,250.11,260.223,250.801,260.508L250.801,260.508z"/>
			</g>
			<g>
				<path style="fill:#FFFFFF;" d="M264.461,249.507c0.914,1.569,1.829,3.137,2.743,4.704c0.382,0.654,1.397,0.063,1.016-0.594
					c-0.914-1.566-1.829-3.135-2.744-4.704C265.095,248.261,264.078,248.852,264.461,249.507L264.461,249.507z"/>
			</g>
			<g>
				<path style="fill:#FFFFFF;" d="M281.522,245.501c-0.365,1.835-0.73,3.669-1.096,5.504c-0.148,0.739,0.985,1.056,1.134,0.313
					c0.365-1.835,0.73-3.669,1.095-5.504C282.803,245.074,281.67,244.758,281.522,245.501L281.522,245.501z"/>
			</g>
			<g>
				<path style="fill:#FFFFFF;" d="M294.855,248.311c-1.307,0.915-2.612,1.83-3.919,2.744c-0.616,0.432-0.029,1.451,0.594,1.016
					c1.307-0.914,2.612-1.829,3.919-2.744C296.065,248.895,295.478,247.876,294.855,248.311L294.855,248.311z"/>
			</g>
			<g>
				<path style="fill:#FFFFFF;" d="M293.741,261.147c2.744-1.045,5.488-2.092,8.232-3.137c0.701-0.267,0.397-1.404-0.313-1.134
					c-2.743,1.046-5.488,2.091-8.232,3.136C292.727,260.279,293.032,261.416,293.741,261.147L293.741,261.147z"/>
			</g>
		</g>
		<g>
			
				<linearGradient id="SVGID_00000071537434102876956810000017729740063158614947_" gradientUnits="userSpaceOnUse" x1="367.9594" y1="275.3099" x2="326.2104" y2="306.7688">
				<stop  offset="0.1112" style="stop-color:#F98886"/>
				<stop  offset="0.2919" style="stop-color:#F99694"/>
			</linearGradient>
			<path style="fill:url(#SVGID_00000071537434102876956810000017729740063158614947_);" d="M352.779,250.191
				c0,0-9.408,27.833-8.625,29.401c0.784,1.567,14.505,10.976,14.505,10.976l-10.978,5.097c0,0-2,5.386-1.567,5.488
				c18.585,4.373,36.065,0,36.065,0s0-4.705-5.88-11.761c-2.368-2.84-22.737-11.368-22.737-11.368l20.385-22.736L352.779,250.191z"
				/>
			
				<linearGradient id="SVGID_00000054232136333584719650000004351355938320879276_" gradientUnits="userSpaceOnUse" x1="367.5781" y1="211.6035" x2="387.3361" y2="273.2485">
				<stop  offset="0.1112" style="stop-color:#F98886"/>
				<stop  offset="0.2919" style="stop-color:#F99694"/>
			</linearGradient>
			<path style="fill:url(#SVGID_00000054232136333584719650000004351355938320879276_);" d="M344.686,171.099
				c26.436-4.344,83.435,58.952,52.193,93.597c-7.383,8.188-32.733,13.721-44.494-3.725c-10.046-14.903,10.092-65.879-6.091-67.88
				C330.111,191.09,339.246,171.993,344.686,171.099z"/>
			<path style="fill:#F99694;" d="M374.339,259.795c0,0-9.408,27.833-8.624,29.401c0.783,1.567,14.505,10.976,14.505,10.976
				l-10.977,5.096c0,0-2.002,5.387-1.568,5.489c18.584,4.373,36.065,0,36.065,0s0-4.704-5.881-11.761
				c-2.367-2.841-22.736-11.368-22.736-11.368l20.385-22.737L374.339,259.795z"/>
			
				<linearGradient id="SVGID_00000054254012660497155000000015675945169482310825_" gradientUnits="userSpaceOnUse" x1="237.4109" y1="101.6051" x2="149.7368" y2="107.9372" gradientTransform="matrix(0.7519 -0.0856 -0.0642 -0.5642 164.2737 304.0476)">
				<stop  offset="0.1112" style="stop-color:#F98886"/>
				<stop  offset="0.2919" style="stop-color:#F99694"/>
			</linearGradient>
			<path style="fill:url(#SVGID_00000054254012660497155000000015675945169482310825_);" d="M282.02,226.964
				c0,0,38.748,30.36,78.5-2.058l-46.747,6.174c0,0-27.343-21.168-37.633-11.76c-4.76,4.351-8.159,6.395-8.159,6.395l0.809,2.425
				C268.79,228.14,277.486,226.472,282.02,226.964z"/>
			<path style="fill:#1FFFA4;" d="M359.673,221.449c0,0-6.333-10.264-25.116,2.67c0,0,0.696,7.59,9.135,15.421
				C343.691,239.54,362.236,230.913,359.673,221.449z"/>
			<path style="fill:#C5EFDD;" d="M336.579,221.726c0,0,3.603,10.778,10.848,16.561l-5.652,3.343c0,0-7.318-6.353-10.353-17.205
				L336.579,221.726z"/>
			<path style="fill:#20D386;" d="M346.114,254.895c6.967,12.541,36.457,17.837,57.038,6.273c0,0,13.721-28.813-11.858-60.273
				l-9.702-13.524l-31.165,26.461C350.427,213.832,345.135,253.131,346.114,254.895z"/>
			<path style="fill:#C5EFDD;" d="M377.671,180.609c0.784,0.392,12.741,11.564,13.917,14.113c1.176,2.548,0,7.252-1.568,9.408
				c-1.568,2.156-18.032,26.852-41.944,22.933c-23.914-3.92,13.524-39.398,13.524-39.398L377.671,180.609z"/>
			<g>
				
					<linearGradient id="SVGID_00000083087513086728250560000017333774775193650621_" gradientUnits="userSpaceOnUse" x1="297.6092" y1="184.0935" x2="385.5934" y2="184.0935">
					<stop  offset="0.1112" style="stop-color:#F98886"/>
					<stop  offset="0.2919" style="stop-color:#F99694"/>
				</linearGradient>
				<path style="fill:url(#SVGID_00000083087513086728250560000017333774775193650621_);" d="M382.673,167.567
					c8.686,21.589-2.659,46.49-25.343,55.617c-22.682,9.127-48.112-0.975-56.8-22.564c-8.687-21.589,2.658-46.49,25.341-55.617
					C348.555,135.876,373.985,145.978,382.673,167.567z"/>
				
					<linearGradient id="SVGID_00000179606224069708453990000014044076156879595685_" gradientUnits="userSpaceOnUse" x1="369.9984" y1="189.7482" x2="355.102" y2="245.6098">
					<stop  offset="0.1112" style="stop-color:#F98886"/>
					<stop  offset="0.2919" style="stop-color:#F99694"/>
				</linearGradient>
				<path style="fill:url(#SVGID_00000179606224069708453990000014044076156879595685_);" d="M357.287,184.137
					c0,12.124,8.152,21.953,18.21,21.953c1.072,0,2.117-0.134,3.14-0.349c7.26-11.194,9.227-25.274,4.036-38.174
					c-0.633-1.571-1.363-3.074-2.166-4.521c-1.593-0.549-3.271-0.862-5.01-0.862C365.439,162.184,357.287,172.013,357.287,184.137z"
					/>
				<path style="fill:#FFAEAE;" d="M313.024,198.895c1.491,3.702,0.851,7.447-1.43,8.364c-2.278,0.917-5.335-1.341-6.824-5.043
					c-1.489-3.702,3.221-2.692,4.495-7.494C309.895,192.347,311.535,195.192,313.024,198.895z"/>
				<path style="fill:#FFAEAE;" d="M344.119,195.646c0,5.134-2.975,9.295-6.645,9.295c-3.671,0-6.645-4.161-6.645-9.295
					c0-5.133,5.497-11.154,6.367-7.589C338.976,195.349,344.119,190.513,344.119,195.646z"/>
				<path style="fill:#383838;" d="M344.239,195.352c0,5.134-2.788,9.295-6.228,9.295c-3.439,0-6.227-4.161-6.227-9.295
					c0-5.133,3.956-9.952,5.803-7.05C340.675,193.153,344.239,190.219,344.239,195.352z"/>
				<path style="fill:#383838;" d="M313.025,198.677c1.464,3.636,0.943,7.27-1.159,8.116c-2.104,0.847-4.996-1.415-6.459-5.05
					c-1.464-3.636,1.604-0.945,4.103-6.825C310.397,192.83,311.563,195.041,313.025,198.677z"/>
				<g>
					<path style="fill:#383838;" d="M321.613,222.946c-0.304,0-0.56-0.232-0.585-0.54c-0.018-0.223-0.387-5.504,4.896-8.254
						c3.95-2.055,14.276-4.257,25.096,2.113c0.279,0.165,0.373,0.525,0.208,0.805c-0.166,0.281-0.526,0.372-0.806,0.208
						c-10.374-6.108-20.205-4.033-23.955-2.083c-4.575,2.381-4.281,6.924-4.267,7.116c0.024,0.324-0.216,0.607-0.54,0.632
						C321.645,222.945,321.629,222.946,321.613,222.946z"/>
				</g>
			</g>
			<path style="fill:#F99694;" d="M336.02,142.388c0,0-23.814-3.234-37.633,3.822c-17.939,9.16,3.822,9.996,2.939,10.29
				c-0.882,0.294-24.402,19.306-14.015,51.059c1.644,5.024,4.878-32.71,15.093-33.615c1.084-0.096-0.497,4.128-0.195,7.057
				c0.413,4.033,2.559,7.003,3.527,5.488c15.289-23.913,34.77-18.289,48.609-25.481c17.192-8.934,29.83,13.284,26.853,3.724
				c-7.448-23.913-39.887-33.223-49.589-31.459C320.596,135.276,336.02,142.388,336.02,142.388z"/>
			
				<linearGradient id="SVGID_00000168825709956530576140000013356184757208752529_" gradientUnits="userSpaceOnUse" x1="351.1349" y1="149.0393" x2="353.291" y2="226.0697">
				<stop  offset="0.1112" style="stop-color:#F98886"/>
				<stop  offset="0.2919" style="stop-color:#F99694"/>
			</linearGradient>
			<path style="fill:url(#SVGID_00000168825709956530576140000013356184757208752529_);" d="M333.766,147.092
				c0,0,21.953,5.292,28.617,24.108c6.664,18.817,6.468-7.84,6.468-7.84l-8.82-11.172
				C360.03,152.188,335.922,139.644,333.766,147.092z"/>
			<path style="fill:#F99694;" d="M383.747,219.81c0,0,6.272,68.211,13.328,70.954c7.057,2.744,19.21-3.136,19.21-5.88
				c0-2.744-2.745-3.92-2.745-3.92l-7.448,1.96c0,0-4.704-9.801-6.664-12.152c-1.96-2.353-3.136-50.962-3.136-50.962
				S387.275,204.13,383.747,219.81z"/>
			<path style="fill:#1FFFA4;" d="M390.216,209.814c0,0-12.936,1.323-9.212,25.628c0,0,7.692,2.891,19.258-1.617
				C400.262,233.825,400.603,211.774,390.216,209.814z"/>
			<path style="fill:#C5EFDD;" d="M379.631,232.355c0,0,12.152,1.568,21.169-2.744l0.588,7.056c0,0-9.605,4.116-21.56,1.96
				L379.631,232.355z"/>
			
				<linearGradient id="SVGID_00000038406052853120838650000011990172267004732083_" gradientUnits="userSpaceOnUse" x1="332.3416" y1="216.3152" x2="334.3956" y2="224.5312">
				<stop  offset="0.1112" style="stop-color:#F98886"/>
				<stop  offset="0.2919" style="stop-color:#F99694"/>
			</linearGradient>
			<path style="fill:url(#SVGID_00000038406052853120838650000011990172267004732083_);" d="M328.474,217.654
				c0,0,3.97-3.578,8.82-0.491C342.145,220.251,324.505,225.004,328.474,217.654z"/>
			<g>
				<g>
					<path style="fill:#FFFFFF;" d="M366.871,179.139c0-11.24,6.873-20.351,15.35-20.351c0.654,0,1.294,0.072,1.926,0.177
						c-2.203-1.142-4.63-1.779-7.18-1.779c-10.057,0-18.21,9.829-18.21,21.953c0,12.123,8.153,21.952,18.21,21.952
						c2.55,0,4.977-0.637,7.18-1.779c-0.632,0.105-1.271,0.177-1.926,0.177C373.744,199.49,366.871,190.378,366.871,179.139z"/>
					<path style="fill:#20D386;" d="M383.985,197.436c-7.541,0-13.653-8.105-13.653-18.101c0-9.997,6.112-18.102,13.653-18.102
						c1.66,0,3.244,0.413,4.716,1.132c-1.363-1.387-2.894-2.54-4.555-3.4c-0.632-0.105-1.271-0.177-1.926-0.177
						c-8.477,0-15.35,9.111-15.35,20.351c0,11.239,6.873,20.35,15.35,20.35c0.654,0,1.294-0.072,1.926-0.177
						c1.341-0.694,2.587-1.592,3.739-2.635C386.648,197.165,385.342,197.436,383.985,197.436z"/>
					<path style="fill:#C5EFDD;" d="M395.176,179.139c0-6.732-2.519-12.747-6.475-16.774c-1.472-0.719-3.056-1.132-4.716-1.132
						c-7.541,0-13.653,8.105-13.653,18.102c0,9.996,6.112,18.101,13.653,18.101c1.356,0,2.663-0.271,3.9-0.759
						C392.305,192.671,395.176,186.317,395.176,179.139z"/>
				</g>
				<g>
					<path style="fill:#FFFFFF;" d="M366.696,164.694l5.585-5.352c-16.759-23.521-38.222-18.523-38.222-18.523
						s-4.115,1.176-6.468,3.234C327.592,144.054,353.316,140.963,366.696,164.694z"/>
					<path style="fill:#AFDDC8;" d="M327.886,146.7c23.815-3.234,37.339,19.404,37.339,19.404l1.472-1.41
						c-13.38-23.731-39.104-20.641-39.104-20.641C325.24,146.112,327.886,146.7,327.886,146.7z"/>
				</g>
			</g>
			<path style="fill:#F99694;" d="M335.04,146.994c0,0-6.958-3.234-10.191-9.114c-3.234-5.88-5.98-7.056-4.804,1.078
				c1.177,8.135,3.431,10.29,3.431,10.29s-8.526-15.68-10.094-13.034c-1.568,2.646,4.704,17.347,4.704,17.347
				S345.624,153.756,335.04,146.994z"/>
		</g>
		<g>
			<path style="fill:#C5EFDD;" d="M358.018,236.256c-0.148,2.675-1.517,4.775-3.057,4.69c-1.54-0.085-2.669-2.323-2.521-4.998
				c0.146-2.675,1.516-4.775,3.056-4.69C357.035,231.344,358.164,233.581,358.018,236.256z"/>
			<path style="fill:#FFFFFF;" d="M357.137,236.208c-0.148,2.675-1.517,4.775-3.057,4.69c-1.54-0.085-2.669-2.322-2.521-4.997
				c0.147-2.675,1.516-4.775,3.056-4.69C356.154,231.295,357.283,233.533,357.137,236.208z"/>
		</g>
		<g>
			<path style="fill:#C5EFDD;" d="M356.253,250.222c-0.148,2.675-1.516,4.774-3.056,4.69c-1.54-0.085-2.669-2.322-2.523-4.998
				c0.148-2.675,1.517-4.775,3.057-4.69C355.271,245.309,356.4,247.546,356.253,250.222z"/>
			<path style="fill:#FFFFFF;" d="M355.372,250.173c-0.148,2.676-1.516,4.775-3.056,4.69c-1.54-0.085-2.669-2.322-2.522-4.998
				c0.148-2.675,1.517-4.775,3.057-4.69C354.391,245.26,355.52,247.498,355.372,250.173z"/>
		</g>
		<g>
			<g>
				<path style="fill:#FFFFFF;" d="M340.779,91.858c-11.48-6.55,5.639-20.378,10.247-8.153c2.428,6.439-3.361,14.497-6.092,20.194
					c-0.733,1.528,1.549,2.872,2.284,1.336c2.709-5.651,7.806-12.918,7.12-19.541c-0.498-4.809-4.404-9.019-9.277-9.485
					c-10.54-1.011-14.643,12.785-5.617,17.935C340.926,94.988,342.26,92.702,340.779,91.858L340.779,91.858z"/>
			</g>
			<g>
				<path style="fill:#FFFFFF;" d="M346.455,114.817c0.096,1.27,0.191,2.539,0.286,3.81c0.866-0.117,1.733-0.234,2.6-0.352
					c-0.13-0.873-0.26-1.746-0.39-2.619c-0.106-0.708-0.999-1.097-1.628-0.924c-0.758,0.208-1.029,0.918-0.924,1.628
					c0.13,0.872,0.26,1.746,0.389,2.618c0.219,1.466,2.711,1.132,2.6-0.351c-0.096-1.271-0.19-2.54-0.286-3.81
					C348.974,113.13,346.327,113.116,346.455,114.817L346.455,114.817z"/>
			</g>
			<g>
				<path style="fill:#FFFFFF;" d="M377.852,86.702c-3.501,7.321-7.002,14.642-10.502,21.963c-0.731,1.528,1.549,2.872,2.284,1.335
					c3.501-7.321,7.001-14.641,10.502-21.962C380.867,86.509,378.586,85.165,377.852,86.702L377.852,86.702z"/>
			</g>
			<g>
				<path style="fill:#FFFFFF;" d="M361.674,117.587c-1.059,1.121-0.244,3.129,1.379,2.932c0.693-0.084,1.224-0.612,1.399-1.276
					c0.205-0.776-0.157-1.461-0.782-1.903c-0.584-0.413-1.471-0.104-1.81,0.475c-0.388,0.662-0.11,1.396,0.474,1.81
					c0.029,0.021,0.059,0.04,0.088,0.062c-0.159-0.158-0.317-0.316-0.475-0.475c-0.085-0.255-0.095-0.505-0.026-0.751
					c0.158-0.158,0.315-0.316,0.475-0.474c0.125-0.034,0.25-0.066,0.375-0.1c0.223,0.061,0.445,0.121,0.669,0.181
					c0.193,0.176,0.32,0.384,0.379,0.626c-0.061,0.222-0.121,0.445-0.181,0.667c-0.031,0.032-0.062,0.064-0.093,0.096
					C364.714,118.221,362.847,116.346,361.674,117.587L361.674,117.587z"/>
			</g>
			<g>
				<path style="fill:#FFFFFF;" d="M391.185,127.662c6.732-5.073,0.023-15.554-6.963-10.387c-2.238,1.655-2.885,5.013-1.199,7.303
					c2.855,3.878,6.264-0.117,9.034-1.628c1.283-0.7,0.394-2.993-1.02-2.418c-6.585,2.677,0.197,11.9,5.903,6.293
					c4.857-4.771,4.254-18.88-3.794-20.113c-9.351-1.434-18.242,10.7-16.934,19.197c1.239,8.045,10.909,13.088,17.051,6.473
					c1.158-1.247-0.708-3.122-1.871-1.871c-4.178,4.5-10.767,1.738-12.309-3.725c-1.328-4.702,0.854-9.324,4.061-12.692
					c3.229-3.388,11.085-8.275,13.434-1.095c0.57,1.741,0.513,3.765,0.406,5.572c-0.041,1.236-0.199,2.459-0.474,3.669
					c-0.665,3.436-2.256,3.718-4.771,0.844c-0.34-0.806-0.68-1.612-1.021-2.418c-0.916,0.5-1.794,1.532-2.732,1.928
					c-1.67,1.618-1.696,0.318-0.078-3.9c4.15,1.552,4.797,3.78,1.939,6.685C388.508,126.389,389.825,128.688,391.185,127.662
					L391.185,127.662z"/>
			</g>
			<g>
				<path style="fill:#FFFFFF;" d="M310.867,105.619c3.658,4.799,6.948,9.87,10.605,14.669c1.018,1.336,3.318,0.02,2.285-1.336
					c-3.658-4.799-6.948-9.87-10.605-14.668C312.134,102.947,309.834,104.264,310.867,105.619L310.867,105.619z"/>
			</g>
			<g>
				<path style="fill:#FFFFFF;" d="M320.346,103.021c3.186,4.666,6.888,8.956,10.072,13.623c0.955,1.398,3.249,0.076,2.286-1.336
					c-3.186-4.666-6.888-8.956-10.072-13.623C321.678,100.288,319.383,101.609,320.346,103.021L320.346,103.021z"/>
			</g>
			<g>
				<path style="fill:#FFFFFF;" d="M310.989,115.1c4.397-5.297,10.274-8.614,17.074-9.66c1.679-0.258,0.965-2.808-0.703-2.551
					c-7.206,1.108-13.586,4.732-18.241,10.34C308.039,114.53,309.9,116.412,310.989,115.1L310.989,115.1z"/>
			</g>
			<g>
				<path style="fill:#FFFFFF;" d="M313.855,118.599c5.893-2.316,11.787-4.632,17.683-6.948c1.566-0.616,0.884-3.176-0.704-2.552
					c-5.894,2.316-11.789,4.632-17.683,6.948C311.585,116.663,312.267,119.223,313.855,118.599L313.855,118.599z"/>
			</g>
		</g>
		<path style="fill:#FFFFFF;" d="M341.895,203.874c0,1.116-1.296,2.02-2.897,2.02c-1.601,0-2.898-0.904-2.898-2.02
			c0-1.116,1.297-2.02,2.898-2.02C340.599,201.854,341.895,202.758,341.895,203.874z"/>
		<path style="fill:#FFFFFF;" d="M313.295,206.212c0.196,0.731-0.747,1.621-2.105,1.986c-1.358,0.365-2.62,0.068-2.817-0.663
			c-0.196-0.732,0.747-1.621,2.105-1.986C311.836,205.184,313.097,205.481,313.295,206.212z"/>
	</g>
</g>
<g id="DESIGNED_BY_FREEPIK">
	<g id="XMLID_1_">
		<g>
			<g id="XMLID_519_">
				<path id="XMLID_540_" style="fill:#FFFFFF;" d="M181.087,473.133c-0.246,0-0.435,0.084-0.567,0.255
					c-0.133,0.169-0.199,0.421-0.199,0.753v2.392c-0.304-0.331-0.617-0.578-0.937-0.738c-0.321-0.159-0.715-0.24-1.182-0.24
					c-0.807,0-1.458,0.283-1.953,0.849c-0.494,0.565-0.742,1.355-0.742,2.369c0,0.477,0.063,0.923,0.188,1.335
					c0.124,0.411,0.307,0.77,0.549,1.073c0.241,0.305,0.526,0.54,0.857,0.704c0.33,0.164,0.689,0.246,1.078,0.246
					c0.293,0,0.563-0.04,0.809-0.122c0.247-0.081,0.477-0.199,0.689-0.356c0.212-0.155,0.426-0.359,0.644-0.608v0.161
					c0,0.297,0.072,0.524,0.217,0.685c0.145,0.161,0.328,0.241,0.549,0.241c0.226,0,0.409-0.078,0.552-0.232
					c0.143-0.154,0.213-0.386,0.213-0.694v-7.147c0-0.306-0.066-0.534-0.199-0.69C181.52,473.211,181.332,473.133,181.087,473.133z
					 M180.021,479.973c-0.141,0.307-0.329,0.534-0.563,0.682c-0.236,0.149-0.496,0.224-0.781,0.224c-0.28,0-0.539-0.078-0.777-0.236
					c-0.237-0.154-0.424-0.388-0.561-0.696c-0.136-0.309-0.205-0.682-0.205-1.121c0-0.416,0.063-0.781,0.193-1.096
					c0.128-0.314,0.31-0.556,0.543-0.724s0.499-0.253,0.795-0.253c0.285,0,0.547,0.083,0.787,0.246
					c0.239,0.165,0.429,0.402,0.569,0.712c0.141,0.312,0.21,0.683,0.21,1.114C180.232,479.282,180.163,479.665,180.021,479.973z"/>
				<path id="XMLID_537_" style="fill:#FFFFFF;" d="M188.452,479.053c0.233-0.122,0.35-0.385,0.35-0.793
					c0-0.439-0.113-0.87-0.338-1.294c-0.225-0.423-0.564-0.768-1.019-1.035c-0.453-0.268-0.996-0.4-1.628-0.4
					c-0.487,0-0.93,0.078-1.33,0.234c-0.4,0.156-0.737,0.381-1.01,0.674c-0.272,0.292-0.48,0.643-0.623,1.054
					c-0.143,0.408-0.213,0.853-0.213,1.332c0,1.017,0.289,1.822,0.867,2.415c0.577,0.593,1.387,0.891,2.427,0.891
					c0.456,0,0.858-0.06,1.207-0.179c0.352-0.119,0.641-0.269,0.874-0.447c0.231-0.181,0.404-0.368,0.519-0.564
					c0.115-0.196,0.172-0.366,0.172-0.514c0-0.166-0.052-0.294-0.155-0.386c-0.103-0.09-0.237-0.137-0.403-0.137
					c-0.154,0-0.273,0.035-0.356,0.107c-0.203,0.19-0.366,0.341-0.492,0.452c-0.126,0.111-0.265,0.216-0.415,0.311
					c-0.15,0.098-0.305,0.167-0.466,0.215c-0.16,0.044-0.337,0.066-0.531,0.066c-0.289,0-0.553-0.07-0.792-0.213
					c-0.239-0.142-0.432-0.353-0.576-0.635c-0.144-0.281-0.219-0.605-0.222-0.974h3.168
					C187.89,479.233,188.219,479.173,188.452,479.053z M184.297,478.314c0.055-0.546,0.212-0.959,0.472-1.237
					c0.259-0.28,0.59-0.419,0.994-0.419c0.423,0,0.764,0.138,1.024,0.412c0.259,0.275,0.409,0.689,0.448,1.244H184.297z"/>
				<path id="XMLID_536_" style="fill:#FFFFFF;" d="M193.878,478.616c-0.319-0.17-0.729-0.316-1.231-0.439
					c-0.424-0.104-0.756-0.19-0.997-0.262c-0.242-0.07-0.434-0.16-0.576-0.27c-0.143-0.108-0.213-0.248-0.213-0.418
					c0-0.187,0.097-0.342,0.291-0.466c0.194-0.125,0.437-0.188,0.73-0.188c0.286,0,0.511,0.048,0.677,0.143
					c0.166,0.096,0.31,0.223,0.433,0.38c0.151,0.19,0.284,0.332,0.401,0.427c0.116,0.096,0.258,0.144,0.424,0.144
					c0.23,0,0.407-0.061,0.532-0.179c0.124-0.118,0.187-0.272,0.187-0.456c0-0.171-0.058-0.345-0.175-0.523
					c-0.116-0.178-0.286-0.34-0.51-0.485c-0.223-0.146-0.502-0.265-0.837-0.35c-0.333-0.088-0.71-0.131-1.13-0.131
					c-0.535,0-0.99,0.085-1.367,0.259c-0.378,0.172-0.665,0.402-0.859,0.69c-0.194,0.289-0.291,0.596-0.291,0.92
					c0,0.364,0.105,0.671,0.315,0.921c0.21,0.248,0.489,0.45,0.839,0.602c0.351,0.152,0.804,0.298,1.362,0.436
					c0.494,0.119,0.849,0.244,1.066,0.374c0.216,0.132,0.323,0.339,0.323,0.623c0,0.186-0.104,0.352-0.311,0.497
					c-0.208,0.143-0.474,0.216-0.798,0.216c-0.4,0-0.715-0.071-0.947-0.213c-0.232-0.144-0.431-0.358-0.597-0.647
					c-0.082-0.15-0.169-0.268-0.261-0.351c-0.091-0.082-0.221-0.125-0.39-0.125c-0.194,0-0.355,0.064-0.481,0.19
					c-0.128,0.127-0.191,0.278-0.191,0.457c0,0.27,0.099,0.537,0.296,0.805c0.198,0.267,0.505,0.489,0.92,0.667
					c0.415,0.179,0.914,0.268,1.495,0.268c0.609,0,1.127-0.082,1.552-0.246c0.425-0.164,0.747-0.406,0.964-0.725
					c0.218-0.318,0.326-0.701,0.326-1.149c0-0.296-0.081-0.56-0.246-0.791C194.438,478.987,194.196,478.785,193.878,478.616z"/>
				<path id="XMLID_535_" style="fill:#FFFFFF;" d="M196.486,475.542c-0.238,0-0.431,0.081-0.579,0.243
					c-0.149,0.162-0.222,0.404-0.222,0.724v4.636c0,0.316,0.073,0.56,0.222,0.73c0.148,0.17,0.341,0.255,0.579,0.255
					c0.238,0,0.433-0.083,0.588-0.249c0.154-0.166,0.232-0.412,0.232-0.736v-4.683c0-0.289-0.078-0.515-0.232-0.677
					C196.919,475.623,196.724,475.542,196.486,475.542z"/>
				<path id="XMLID_534_" style="fill:#FFFFFF;" d="M196.504,473.203c-0.217,0-0.409,0.073-0.573,0.223
					c-0.165,0.149-0.246,0.337-0.246,0.567c0,0.254,0.08,0.449,0.24,0.587c0.16,0.139,0.353,0.208,0.579,0.208
					c0.217,0,0.405-0.07,0.563-0.211c0.158-0.14,0.238-0.335,0.238-0.584c0-0.258-0.081-0.453-0.244-0.588
					C196.9,473.271,196.714,473.203,196.504,473.203z"/>
				<path id="XMLID_531_" style="fill:#FFFFFF;" d="M203.626,475.542c-0.217,0-0.396,0.077-0.535,0.23
					c-0.139,0.155-0.208,0.373-0.208,0.653v0.221c-0.289-0.376-0.602-0.652-0.938-0.829c-0.337-0.175-0.734-0.264-1.193-0.264
					c-0.384,0-0.736,0.068-1.056,0.204c-0.321,0.137-0.604,0.34-0.849,0.608c-0.245,0.269-0.433,0.6-0.566,0.992
					c-0.133,0.391-0.199,0.83-0.199,1.317c0,0.653,0.108,1.227,0.327,1.727c0.217,0.499,0.529,0.887,0.934,1.163
					c0.406,0.277,0.88,0.416,1.422,0.416c0.45,0,0.839-0.091,1.166-0.272c0.327-0.183,0.614-0.447,0.864-0.797
					c-0.008,0.531-0.02,0.915-0.036,1.155c-0.016,0.24-0.07,0.465-0.164,0.673c-0.093,0.21-0.255,0.374-0.486,0.49
					c-0.232,0.117-0.557,0.175-0.977,0.175c-0.205,0-0.387-0.02-0.545-0.056c-0.159-0.038-0.294-0.096-0.406-0.172
					c-0.112-0.078-0.216-0.17-0.309-0.279c-0.093-0.108-0.183-0.217-0.27-0.324c-0.178-0.209-0.386-0.314-0.624-0.314
					c-0.189,0-0.352,0.063-0.486,0.188c-0.135,0.124-0.202,0.285-0.202,0.483c0,0.262,0.119,0.516,0.356,0.763
					c0.238,0.247,0.576,0.449,1.014,0.605c0.439,0.156,0.938,0.234,1.496,0.234c0.609,0,1.119-0.061,1.528-0.185
					c0.409-0.122,0.741-0.311,0.994-0.563c0.253-0.254,0.438-0.574,0.551-0.962c0.115-0.389,0.173-0.851,0.173-1.389v-4.706
					c0-0.384-0.051-0.679-0.155-0.882C204.146,475.645,203.938,475.542,203.626,475.542z M202.6,479.907
					c-0.151,0.29-0.346,0.508-0.586,0.653c-0.239,0.144-0.493,0.216-0.762,0.216c-0.455,0-0.826-0.167-1.113-0.504
					c-0.287-0.337-0.431-0.834-0.431-1.49c0-0.648,0.139-1.15,0.419-1.502c0.279-0.351,0.649-0.528,1.113-0.528
					c0.475,0,0.858,0.184,1.148,0.553c0.291,0.368,0.437,0.883,0.437,1.543C202.825,479.264,202.749,479.616,202.6,479.907z"/>
				<path id="XMLID_530_" style="fill:#FFFFFF;" d="M210.978,476.609c-0.165-0.339-0.418-0.603-0.753-0.788
					c-0.337-0.186-0.718-0.279-1.146-0.279c-0.439,0-0.828,0.087-1.166,0.264c-0.338,0.177-0.65,0.452-0.935,0.828v-0.195
					c0-0.194-0.034-0.358-0.104-0.493c-0.069-0.134-0.162-0.234-0.276-0.303c-0.114-0.067-0.244-0.101-0.387-0.101
					c-0.233,0-0.416,0.076-0.552,0.228c-0.134,0.152-0.201,0.384-0.201,0.692v4.683c0,0.316,0.076,0.56,0.226,0.73
					c0.15,0.17,0.342,0.255,0.576,0.255c0.241,0,0.438-0.082,0.59-0.246c0.152-0.164,0.228-0.411,0.228-0.739v-2.03
					c0-0.661,0.04-1.111,0.119-1.353c0.11-0.301,0.284-0.537,0.522-0.71c0.237-0.173,0.5-0.258,0.788-0.258
					c0.444,0,0.74,0.142,0.888,0.425c0.148,0.282,0.223,0.691,0.223,1.225v2.7c0,0.316,0.074,0.56,0.226,0.73
					c0.15,0.17,0.346,0.255,0.587,0.255c0.238,0,0.431-0.083,0.578-0.249c0.149-0.166,0.224-0.412,0.224-0.736v-3.016
					c0-0.356-0.017-0.648-0.048-0.878C211.155,477.022,211.085,476.808,210.978,476.609z"/>
				<path id="XMLID_527_" style="fill:#FFFFFF;" d="M217.821,479.053c0.233-0.122,0.35-0.385,0.35-0.793
					c0-0.439-0.113-0.87-0.338-1.294c-0.226-0.423-0.565-0.768-1.019-1.035c-0.453-0.268-0.996-0.4-1.628-0.4
					c-0.487,0-0.93,0.078-1.33,0.234c-0.4,0.156-0.736,0.381-1.009,0.674c-0.273,0.292-0.481,0.643-0.624,1.054
					c-0.142,0.408-0.213,0.853-0.213,1.332c0,1.017,0.289,1.822,0.866,2.415c0.578,0.593,1.387,0.891,2.428,0.891
					c0.455,0,0.858-0.06,1.208-0.179c0.351-0.119,0.64-0.269,0.872-0.447c0.232-0.181,0.405-0.368,0.52-0.564
					c0.114-0.196,0.172-0.366,0.172-0.514c0-0.166-0.051-0.294-0.154-0.386c-0.103-0.09-0.238-0.137-0.404-0.137
					c-0.154,0-0.273,0.035-0.356,0.107c-0.201,0.19-0.366,0.341-0.492,0.452c-0.128,0.111-0.266,0.216-0.415,0.311
					c-0.151,0.098-0.307,0.167-0.466,0.215c-0.161,0.044-0.338,0.066-0.532,0.066c-0.288,0-0.553-0.07-0.792-0.213
					c-0.239-0.142-0.431-0.353-0.575-0.635c-0.145-0.281-0.219-0.605-0.223-0.974h3.169
					C217.26,479.233,217.588,479.173,217.821,479.053z M213.666,478.314c0.056-0.546,0.212-0.959,0.471-1.237
					c0.259-0.28,0.591-0.419,0.995-0.419c0.423,0,0.765,0.138,1.024,0.412c0.259,0.275,0.409,0.689,0.448,1.244H213.666z"/>
				<path id="XMLID_524_" style="fill:#FFFFFF;" d="M224.206,473.133c-0.245,0-0.434,0.084-0.567,0.255
					c-0.132,0.169-0.199,0.421-0.199,0.753v2.392c-0.304-0.331-0.617-0.578-0.938-0.738c-0.32-0.159-0.714-0.24-1.181-0.24
					c-0.808,0-1.458,0.283-1.953,0.849c-0.495,0.565-0.741,1.355-0.741,2.369c0,0.477,0.062,0.923,0.187,1.335
					c0.125,0.411,0.308,0.77,0.549,1.073c0.241,0.305,0.527,0.54,0.857,0.704c0.33,0.164,0.689,0.246,1.077,0.246
					c0.293,0,0.563-0.04,0.81-0.122c0.248-0.081,0.476-0.199,0.689-0.356c0.211-0.155,0.426-0.359,0.643-0.608v0.161
					c0,0.297,0.072,0.524,0.217,0.685c0.145,0.161,0.328,0.241,0.549,0.241c0.226,0,0.41-0.078,0.552-0.232
					c0.143-0.154,0.213-0.386,0.213-0.694v-7.147c0-0.306-0.065-0.534-0.199-0.69C224.641,473.211,224.452,473.133,224.206,473.133z
					 M223.141,479.973c-0.14,0.307-0.328,0.534-0.564,0.682c-0.235,0.149-0.495,0.224-0.781,0.224c-0.281,0-0.54-0.078-0.776-0.236
					c-0.238-0.154-0.425-0.388-0.562-0.696c-0.137-0.309-0.205-0.682-0.205-1.121c0-0.416,0.064-0.781,0.193-1.096
					c0.129-0.314,0.31-0.556,0.543-0.724c0.233-0.168,0.499-0.253,0.795-0.253c0.285,0,0.547,0.083,0.787,0.246
					c0.239,0.165,0.43,0.402,0.57,0.712c0.14,0.312,0.21,0.683,0.21,1.114C223.352,479.282,223.281,479.665,223.141,479.973z"/>
				<path id="XMLID_521_" style="fill:#FFFFFF;" d="M233.586,475.935c-0.406-0.254-0.877-0.382-1.415-0.382
					c-0.467,0-0.859,0.084-1.175,0.252c-0.317,0.168-0.627,0.411-0.932,0.727v-2.475c0-0.297-0.068-0.524-0.202-0.685
					c-0.135-0.16-0.326-0.239-0.576-0.239c-0.237,0-0.423,0.084-0.555,0.252c-0.133,0.167-0.198,0.416-0.198,0.744v7.075
					c0,0.305,0.068,0.535,0.205,0.692c0.136,0.155,0.319,0.233,0.549,0.233c0.226,0,0.412-0.078,0.558-0.233
					c0.146-0.157,0.22-0.388,0.22-0.692v-0.161c0.178,0.205,0.322,0.361,0.43,0.464c0.109,0.103,0.241,0.203,0.395,0.3
					c0.154,0.098,0.341,0.175,0.561,0.234c0.22,0.06,0.454,0.089,0.704,0.089c0.407,0,0.781-0.082,1.119-0.246
					c0.338-0.164,0.626-0.397,0.864-0.698c0.237-0.3,0.418-0.656,0.543-1.064c0.124-0.41,0.187-0.859,0.187-1.35
					c0-0.666-0.112-1.241-0.336-1.725C234.305,476.561,233.991,476.192,233.586,475.935z M232.796,480.347
					c-0.295,0.354-0.646,0.531-1.053,0.531c-0.479,0-0.866-0.174-1.161-0.521c-0.295-0.346-0.442-0.841-0.442-1.486
					c0-0.439,0.069-0.818,0.207-1.137c0.138-0.318,0.328-0.561,0.57-0.729c0.24-0.168,0.516-0.253,0.825-0.253
					c0.3,0,0.563,0.085,0.789,0.253c0.225,0.168,0.399,0.406,0.521,0.715c0.123,0.309,0.184,0.677,0.184,1.104
					C233.238,479.484,233.09,479.992,232.796,480.347z"/>
				<path id="XMLID_520_" style="fill:#FFFFFF;" d="M240.529,475.64c-0.112-0.065-0.23-0.098-0.353-0.098
					c-0.171,0-0.302,0.029-0.395,0.089c-0.093,0.059-0.181,0.174-0.264,0.344c-0.083,0.171-0.176,0.406-0.279,0.706l-1.3,3.71
					l-1.371-3.988c-0.091-0.277-0.195-0.49-0.314-0.638c-0.119-0.148-0.295-0.223-0.529-0.223c-0.135,0-0.264,0.035-0.389,0.107
					c-0.124,0.07-0.222,0.166-0.294,0.284c-0.071,0.118-0.107,0.247-0.107,0.386c0,0.13,0.062,0.341,0.184,0.628l1.995,5.022
					l-0.148,0.363c-0.111,0.265-0.208,0.465-0.294,0.601c-0.085,0.138-0.181,0.233-0.288,0.289c-0.107,0.056-0.254,0.083-0.44,0.083
					c-0.075,0-0.163-0.012-0.266-0.035c-0.083-0.024-0.168-0.036-0.256-0.036c-0.221,0-0.388,0.051-0.501,0.151
					c-0.113,0.101-0.169,0.245-0.169,0.431c0,0.272,0.119,0.46,0.356,0.565c0.237,0.102,0.593,0.153,1.068,0.153
					c0.487,0,0.873-0.073,1.161-0.223c0.287-0.147,0.517-0.361,0.691-0.639c0.174-0.276,0.353-0.658,0.535-1.145l2.113-5.531
					c0.051-0.143,0.095-0.283,0.13-0.422c0.037-0.139,0.061-0.245,0.078-0.32c0-0.123-0.032-0.239-0.093-0.35
					C240.729,475.793,240.642,475.705,240.529,475.64z"/>
			</g>
			<g id="XMLID_483_">
				<g id="XMLID_498_">
					<path id="XMLID_518_" style="fill:#FFFFFF;" d="M262.93,473.128c-0.533,0-0.954,0.068-1.26,0.204
						c-0.308,0.137-0.527,0.353-0.654,0.652c-0.13,0.301-0.191,0.702-0.191,1.211v0.486h-0.387c-0.543,0-0.815,0.192-0.815,0.582
						c0,0.175,0.065,0.316,0.196,0.424c0.132,0.111,0.316,0.164,0.559,0.164h0.446v4.293c0,0.319,0.074,0.563,0.228,0.73
						c0.154,0.17,0.344,0.253,0.573,0.253c0.243,0,0.438-0.083,0.589-0.253c0.155-0.168,0.23-0.411,0.23-0.73v-4.293h0.396
						c0.291,0,0.517-0.036,0.681-0.107c0.166-0.071,0.245-0.241,0.245-0.503c0-0.374-0.307-0.56-0.926-0.56h-0.396v-0.386
						c0-0.322,0.043-0.567,0.122-0.74c0.087-0.171,0.273-0.259,0.565-0.259c0.108,0,0.241,0.014,0.39,0.034
						c0.155,0.026,0.268,0.038,0.33,0.038c0.134,0,0.252-0.055,0.348-0.16c0.102-0.107,0.15-0.235,0.15-0.385
						C264.35,473.357,263.879,473.128,262.93,473.128z"/>
					<path id="XMLID_517_" style="fill:#FFFFFF;" d="M268.089,475.794c-0.32-0.171-0.648-0.256-0.99-0.256
						c-0.342,0-0.61,0.085-0.818,0.256c-0.202,0.171-0.4,0.421-0.592,0.755c-0.015-0.334-0.08-0.584-0.199-0.755
						c-0.119-0.171-0.313-0.256-0.583-0.256c-0.525,0-0.788,0.364-0.788,1.094v4.513c0,0.323,0.078,0.569,0.226,0.733
						c0.149,0.169,0.34,0.25,0.579,0.25c0.236,0,0.432-0.08,0.586-0.246c0.15-0.163,0.233-0.41,0.233-0.737v-1.354
						c0-0.486,0.014-0.899,0.045-1.239c0.033-0.336,0.09-0.63,0.17-0.877c0.084-0.243,0.201-0.426,0.353-0.554
						c0.149-0.122,0.345-0.186,0.582-0.186c0.172,0,0.374,0.037,0.602,0.108c0.227,0.073,0.371,0.112,0.434,0.112
						c0.157,0,0.304-0.064,0.44-0.194c0.135-0.126,0.204-0.292,0.204-0.488C268.571,476.191,268.411,475.965,268.089,475.794z"/>
					<path id="XMLID_514_" style="fill:#FFFFFF;" d="M274.176,479.051c0.233-0.122,0.351-0.386,0.351-0.791
						c0-0.44-0.112-0.87-0.339-1.296c-0.222-0.423-0.565-0.77-1.018-1.033c-0.453-0.271-0.997-0.403-1.629-0.403
						c-0.488,0-0.931,0.078-1.329,0.232c-0.402,0.156-0.735,0.381-1.008,0.675c-0.275,0.295-0.484,0.642-0.624,1.054
						c-0.145,0.41-0.218,0.855-0.218,1.334c0,1.017,0.293,1.822,0.87,2.418c0.576,0.593,1.385,0.888,2.429,0.888
						c0.453,0,0.857-0.06,1.207-0.179c0.349-0.116,0.64-0.268,0.874-0.445c0.232-0.183,0.404-0.368,0.522-0.566
						c0.111-0.195,0.167-0.365,0.167-0.512c0-0.167-0.048-0.294-0.152-0.386c-0.104-0.093-0.237-0.139-0.405-0.139
						c-0.152,0-0.271,0.037-0.355,0.108c-0.202,0.189-0.367,0.34-0.493,0.449c-0.128,0.113-0.264,0.217-0.415,0.313
						c-0.15,0.097-0.307,0.169-0.466,0.213c-0.16,0.048-0.336,0.068-0.531,0.068c-0.29,0-0.552-0.069-0.792-0.211
						c-0.24-0.145-0.431-0.356-0.578-0.636c-0.145-0.28-0.216-0.606-0.222-0.974h3.171
						C273.615,479.232,273.942,479.172,274.176,479.051z M270.02,478.31c0.055-0.545,0.213-0.957,0.472-1.236
						c0.26-0.28,0.592-0.417,0.995-0.417c0.426,0,0.764,0.136,1.024,0.412c0.261,0.273,0.407,0.689,0.446,1.241H270.02z"/>
					<path id="XMLID_511_" style="fill:#FFFFFF;" d="M280.916,479.051c0.232-0.122,0.352-0.386,0.352-0.791
						c0-0.44-0.116-0.87-0.341-1.296c-0.222-0.423-0.564-0.77-1.013-1.033c-0.46-0.271-1.003-0.403-1.634-0.403
						c-0.486,0-0.932,0.078-1.33,0.232c-0.4,0.156-0.736,0.381-1.009,0.675c-0.273,0.295-0.48,0.642-0.622,1.054
						c-0.145,0.41-0.218,0.855-0.218,1.334c0,1.017,0.291,1.822,0.868,2.418c0.58,0.593,1.387,0.888,2.43,0.888
						c0.453,0,0.859-0.06,1.208-0.179c0.348-0.116,0.641-0.268,0.872-0.445c0.234-0.183,0.408-0.368,0.518-0.566
						c0.116-0.195,0.171-0.365,0.171-0.512c0-0.167-0.047-0.294-0.15-0.386c-0.104-0.093-0.238-0.139-0.406-0.139
						c-0.151,0-0.27,0.037-0.355,0.108c-0.202,0.189-0.367,0.34-0.492,0.449c-0.127,0.113-0.264,0.217-0.415,0.313
						c-0.152,0.097-0.307,0.169-0.469,0.213c-0.157,0.048-0.335,0.068-0.527,0.068c-0.291,0-0.556-0.069-0.795-0.211
						c-0.238-0.145-0.431-0.356-0.575-0.636c-0.144-0.28-0.218-0.606-0.222-0.974h3.17
						C280.354,479.232,280.682,479.172,280.916,479.051z M276.762,478.31c0.053-0.545,0.211-0.957,0.47-1.236
						c0.261-0.28,0.592-0.417,0.995-0.417c0.425,0,0.764,0.136,1.026,0.412c0.257,0.273,0.407,0.689,0.446,1.241H276.762z"/>
					<path id="XMLID_508_" style="fill:#FFFFFF;" d="M286.927,475.935c-0.42-0.256-0.883-0.386-1.379-0.386
						c-0.415,0-0.79,0.089-1.114,0.267c-0.331,0.177-0.648,0.453-0.952,0.828v-0.195c0-0.296-0.071-0.518-0.218-0.677
						c-0.144-0.156-0.329-0.234-0.56-0.234c-0.233,0-0.419,0.078-0.554,0.229c-0.133,0.154-0.199,0.382-0.199,0.691v6.995
						c0,0.354,0.051,0.619,0.145,0.807c0.102,0.183,0.301,0.274,0.607,0.274c0.517,0,0.777-0.359,0.777-1.068v-2.434
						c0.286,0.358,0.586,0.634,0.9,0.816c0.314,0.188,0.704,0.279,1.166,0.279c0.385,0,0.741-0.076,1.079-0.227
						c0.334-0.152,0.622-0.372,0.868-0.653c0.245-0.283,0.44-0.633,0.58-1.05c0.14-0.419,0.21-0.878,0.21-1.376
						c0-0.677-0.122-1.261-0.366-1.758C287.676,476.57,287.346,476.194,286.927,475.935z M286.45,479.939
						c-0.137,0.313-0.32,0.547-0.552,0.705c-0.229,0.153-0.48,0.232-0.748,0.232c-0.454,0-0.828-0.179-1.133-0.537
						c-0.307-0.357-0.46-0.862-0.46-1.503c0-0.686,0.155-1.204,0.462-1.559c0.307-0.35,0.685-0.527,1.131-0.527
						c0.281,0,0.54,0.084,0.77,0.248c0.229,0.163,0.411,0.398,0.542,0.705c0.13,0.306,0.196,0.674,0.196,1.101
						C286.658,479.247,286.589,479.625,286.45,479.939z"/>
					<path id="XMLID_507_" style="fill:#FFFFFF;" d="M289.9,475.538c-0.238,0-0.428,0.08-0.58,0.245
						c-0.146,0.162-0.222,0.402-0.222,0.722v4.642c0,0.313,0.076,0.555,0.222,0.728c0.152,0.17,0.342,0.253,0.58,0.253
						s0.432-0.081,0.588-0.25c0.154-0.164,0.231-0.41,0.231-0.731v-4.689c0-0.287-0.077-0.513-0.231-0.675
						C290.332,475.618,290.139,475.538,289.9,475.538z"/>
					<path id="XMLID_506_" style="fill:#FFFFFF;" d="M289.917,473.198c-0.217,0-0.407,0.076-0.571,0.223
						c-0.166,0.149-0.247,0.339-0.247,0.568c0,0.253,0.08,0.446,0.242,0.586c0.158,0.138,0.35,0.208,0.576,0.208
						c0.22,0,0.408-0.07,0.566-0.209c0.157-0.141,0.236-0.335,0.236-0.585c0-0.257-0.082-0.454-0.244-0.591
						C290.314,473.266,290.13,473.198,289.917,473.198z"/>
					<path id="XMLID_505_" style="fill:#FFFFFF;" d="M297.258,480.568l-1.662-2.614l0.861-0.789c0.438-0.396,0.658-0.714,0.658-0.95
						c0-0.192-0.068-0.354-0.2-0.483c-0.138-0.128-0.306-0.193-0.509-0.193c-0.169,0-0.313,0.044-0.432,0.13
						c-0.121,0.087-0.29,0.252-0.517,0.487l-1.822,1.913v-3.933c0-0.33-0.074-0.582-0.221-0.751
						c-0.147-0.171-0.344-0.257-0.593-0.257c-0.256,0-0.457,0.093-0.596,0.283c-0.136,0.189-0.207,0.462-0.207,0.82v6.913
						c0,0.323,0.073,0.569,0.215,0.733c0.141,0.169,0.339,0.25,0.588,0.25c0.213,0,0.405-0.083,0.566-0.253
						c0.164-0.168,0.247-0.407,0.247-0.719v-1.291l0.88-0.829l1.428,2.353c0.182,0.277,0.329,0.471,0.435,0.58
						c0.107,0.109,0.261,0.159,0.459,0.159c0.226,0,0.412-0.073,0.553-0.221c0.142-0.151,0.214-0.352,0.214-0.609
						c0-0.089-0.029-0.19-0.082-0.288C297.47,480.908,297.379,480.764,297.258,480.568z"/>
					<path id="XMLID_504_" style="fill:#FFFFFF;" d="M299.45,480.342c-0.251,0-0.459,0.087-0.63,0.261
						c-0.171,0.174-0.257,0.382-0.257,0.623c0,0.286,0.091,0.509,0.269,0.665c0.179,0.159,0.389,0.237,0.633,0.237
						c0.237,0,0.444-0.078,0.624-0.24c0.175-0.157,0.264-0.38,0.264-0.662c0-0.244-0.089-0.454-0.264-0.626
						C299.909,480.429,299.698,480.342,299.45,480.342z"/>
					<path id="XMLID_503_" style="fill:#FFFFFF;" d="M306.835,479.415c-0.166,0-0.308,0.054-0.422,0.156
						c-0.113,0.104-0.219,0.245-0.318,0.427c-0.177,0.31-0.381,0.538-0.616,0.69c-0.23,0.149-0.509,0.225-0.834,0.225
						c-0.24,0-0.463-0.045-0.666-0.141c-0.201-0.094-0.372-0.23-0.516-0.409c-0.144-0.18-0.252-0.397-0.325-0.652
						c-0.075-0.256-0.114-0.537-0.114-0.842c0-0.646,0.147-1.161,0.44-1.534c0.293-0.374,0.682-0.561,1.158-0.561
						c0.333,0,0.606,0.074,0.82,0.227c0.219,0.147,0.425,0.375,0.623,0.674c0.108,0.158,0.209,0.27,0.299,0.339
						c0.09,0.068,0.201,0.104,0.338,0.104c0.202,0,0.377-0.068,0.524-0.203c0.143-0.135,0.214-0.3,0.214-0.492
						c0-0.191-0.062-0.397-0.192-0.616c-0.127-0.218-0.315-0.424-0.556-0.62c-0.245-0.192-0.54-0.352-0.891-0.475
						c-0.353-0.123-0.736-0.184-1.156-0.184c-0.674,0-1.26,0.138-1.747,0.418c-0.485,0.279-0.858,0.674-1.113,1.184
						c-0.259,0.511-0.387,1.098-0.387,1.765c0,0.981,0.281,1.765,0.841,2.35c0.563,0.582,1.345,0.876,2.349,0.876
						c0.469,0,0.894-0.065,1.269-0.192c0.377-0.125,0.688-0.295,0.935-0.502c0.248-0.207,0.434-0.425,0.553-0.656
						c0.122-0.229,0.183-0.446,0.183-0.646c0-0.17-0.066-0.331-0.198-0.481C307.198,479.492,307.033,479.415,306.835,479.415z"/>
					<path id="XMLID_500_" style="fill:#FFFFFF;" d="M313.646,476.451c-0.288-0.29-0.628-0.518-1.026-0.674
						c-0.4-0.161-0.847-0.239-1.336-0.239c-0.482,0-0.924,0.078-1.326,0.234c-0.398,0.158-0.737,0.38-1.02,0.669
						c-0.281,0.288-0.498,0.636-0.648,1.044c-0.146,0.409-0.225,0.858-0.225,1.35c0,0.485,0.076,0.93,0.22,1.332
						c0.151,0.401,0.369,0.749,0.657,1.047c0.284,0.293,0.626,0.521,1.016,0.677c0.393,0.159,0.835,0.239,1.326,0.239
						c0.492,0,0.937-0.08,1.336-0.234c0.394-0.157,0.735-0.382,1.02-0.675c0.286-0.291,0.502-0.642,0.656-1.05
						c0.145-0.408,0.222-0.855,0.222-1.336c0-0.489-0.075-0.932-0.221-1.339C314.148,477.095,313.933,476.748,313.646,476.451z
						 M312.455,480.367c-0.29,0.372-0.682,0.558-1.171,0.558c-0.324,0-0.604-0.087-0.846-0.253c-0.24-0.168-0.424-0.409-0.554-0.729
						c-0.129-0.316-0.193-0.685-0.193-1.108c0-0.429,0.066-0.803,0.197-1.125c0.13-0.32,0.314-0.563,0.556-0.727
						c0.242-0.163,0.522-0.246,0.84-0.246c0.489,0,0.881,0.183,1.171,0.555c0.289,0.368,0.436,0.882,0.436,1.543
						C312.891,479.485,312.744,479.998,312.455,480.367z"/>
					<path id="XMLID_499_" style="fill:#FFFFFF;" d="M323.569,475.811c-0.32-0.173-0.705-0.262-1.146-0.262
						c-0.38,0-0.726,0.081-1.038,0.241c-0.314,0.161-0.607,0.408-0.882,0.738c-0.191-0.326-0.431-0.572-0.725-0.735
						c-0.292-0.162-0.642-0.244-1.048-0.244c-0.395,0-0.748,0.079-1.07,0.241c-0.319,0.156-0.62,0.403-0.903,0.738v-0.153
						c0-0.262-0.073-0.467-0.221-0.616c-0.15-0.145-0.335-0.222-0.558-0.222c-0.226,0-0.412,0.078-0.556,0.239
						c-0.14,0.156-0.21,0.389-0.21,0.694v4.636c0,0.336,0.078,0.592,0.235,0.765c0.156,0.171,0.358,0.258,0.604,0.258
						c0.248,0,0.447-0.087,0.603-0.258c0.149-0.173,0.227-0.429,0.227-0.765v-2.188c0-0.684,0.086-1.206,0.253-1.566
						c0.169-0.369,0.517-0.55,1.048-0.55c0.264,0,0.459,0.071,0.582,0.22c0.121,0.142,0.197,0.33,0.226,0.551
						c0.027,0.227,0.04,0.545,0.04,0.953v2.581c0,0.341,0.078,0.594,0.232,0.768c0.148,0.17,0.35,0.255,0.595,0.255
						c0.254,0,0.454-0.085,0.61-0.255c0.156-0.174,0.23-0.427,0.23-0.768v-2.153c0-0.694,0.063-1.178,0.178-1.452
						c0.109-0.21,0.259-0.384,0.451-0.508c0.191-0.125,0.395-0.191,0.608-0.191c0.264,0,0.463,0.071,0.596,0.215
						c0.128,0.141,0.209,0.318,0.238,0.528c0.029,0.21,0.044,0.486,0.044,0.836v2.726c0,0.336,0.078,0.592,0.234,0.765
						c0.157,0.171,0.356,0.258,0.604,0.258c0.252,0,0.458-0.085,0.611-0.255c0.154-0.174,0.229-0.427,0.229-0.768v-3.163
						c0-0.63-0.068-1.091-0.206-1.386C324.128,476.236,323.889,475.986,323.569,475.811z"/>
				</g>
				<g id="XMLID_484_">
					<path id="XMLID_497_" style="fill:#FFFFFF;" d="M245.273,478.442c-0.001-0.003-0.001-0.006-0.001-0.011
						C245.272,478.436,245.272,478.44,245.273,478.442z"/>
					<path id="XMLID_496_" style="fill:#FFFFFF;" d="M245.355,478.96c0.001,0,0.001,0,0.001,0c-0.03-0.146-0.055-0.294-0.073-0.438
						C245.301,478.668,245.326,478.815,245.355,478.96z"/>
					<path id="XMLID_495_" style="fill:#FFFFFF;" d="M245.891,480.464c-0.003-0.006-0.006-0.013-0.01-0.021
						C245.885,480.451,245.888,480.458,245.891,480.464z"/>
					<path id="XMLID_494_" style="fill:#FFFFFF;" d="M245.84,480.364c-0.014-0.027-0.027-0.056-0.04-0.084
						C245.812,480.31,245.826,480.337,245.84,480.364z"/>
					<path id="XMLID_493_" style="fill:#FFFFFF;" d="M245.505,479.54c0.08,0.25,0.175,0.492,0.286,0.724
						c-0.113-0.236-0.206-0.479-0.284-0.724H245.505z"/>
					<path id="XMLID_492_" style="fill:#FFFFFF;" d="M250.736,471.68l-0.076-0.259c0.299-0.064,0.523-0.329,0.523-0.646
						c0-0.363-0.296-0.659-0.66-0.659c-0.365,0-0.66,0.296-0.66,0.659c0,0.317,0.225,0.583,0.522,0.646l0.084,0.289
						c-1.021,0.141-1.834,0.539-1.834,0.539l0.144,0.441c0.617-0.206,1.153-0.331,1.64-0.384c0.476-0.05,0.833-0.072,1.126-0.072
						c0.313,0,0.545,0.025,0.81,0.069l0.075-0.477C252.43,471.826,251.697,471.602,250.736,471.68z"/>
					<path id="XMLID_491_" style="fill:#FFFFFF;" d="M245.453,474.186c-0.017,0.024-0.497,0.466-0.876,1.28
						c-0.016-0.026-0.035-0.051-0.056-0.074c-0.114-0.124-0.272-0.188-0.474-0.185c-0.003,0-0.006,0-0.01,0
						c-0.124,0-0.21-0.041-0.266-0.092c0.056-0.07,0.089-0.16,0.089-0.258c0-0.231-0.188-0.419-0.419-0.419
						c-0.23,0-0.417,0.188-0.417,0.419c0,0.231,0.188,0.417,0.417,0.417c0.037,0,0.071-0.006,0.105-0.012
						c0.102,0.113,0.266,0.213,0.504,0.208c0.124-0.001,0.214,0.031,0.273,0.098c0.07,0.075,0.093,0.185,0.1,0.267
						c-0.001,0.002-0.001,0.004-0.002,0.004c-0.272,0.743-0.194,1.668-0.194,1.668l0.661,0.025c0.014-0.336,0.061-0.926,0.232-1.393
						c0.329-0.906,0.741-1.473,0.757-1.496l0.004-0.005c0.024-0.031,0.047-0.06,0.071-0.089l-0.196-0.142L245.453,474.186z"/>
					<path id="XMLID_490_" style="fill:#FFFFFF;" d="M257.294,472.786c-0.23,0-0.419,0.187-0.419,0.417
						c0,0.037,0.006,0.07,0.016,0.104c-0.115,0.104-0.215,0.268-0.211,0.507c0.002,0.123-0.03,0.212-0.097,0.272
						c-0.053,0.047-0.119,0.072-0.185,0.088c-0.492-0.688-1.098-1.109-1.098-1.109l-0.474,0.509c0.358,0.325,0.725,0.733,1.08,1.243
						c0.246,0.353,0.499,0.807,0.71,1.259l0.64-0.304c0,0-0.292-0.722-0.703-1.369c0.071-0.025,0.143-0.064,0.206-0.12
						c0.126-0.113,0.188-0.272,0.184-0.474c-0.001-0.13,0.041-0.218,0.093-0.276c0.071,0.055,0.16,0.09,0.258,0.09
						c0.232,0,0.418-0.188,0.418-0.419C257.712,472.973,257.525,472.786,257.294,472.786z"/>
					<path id="XMLID_489_" style="fill:#FFFFFF;" d="M255.633,478.536c-0.88,0.429-2.33,0.996-4.236,1.262
						c-0.749,0.103-1.475,0.142-2.143,0.142c-0.869,0-1.638-0.065-2.227-0.14c-0.672-0.085-1.198-0.189-1.52-0.261
						c0.078,0.244,0.171,0.487,0.284,0.724c0.002,0.006,0.005,0.013,0.008,0.017c0.013,0.028,0.027,0.057,0.04,0.084
						c0.014,0.027,0.027,0.055,0.041,0.079c0.004,0.008,0.007,0.015,0.01,0.021c0.19,0.356,0.417,0.685,0.676,0.969
						c0.899,0.983,1.816,1.139,1.825,1.141l0.015,0.002l0.013,0.005c0.009,0.003,0.821,0.265,2.057,0.265
						c1.215,0,2.409-0.244,3.545-0.728c0.842-0.431,1.639-1.085,2.033-1.668c0.306-0.452,0.526-0.935,0.656-1.434
						c0.069-0.267,0.124-0.692,0.092-1.141C256.555,478.04,256.163,478.278,255.633,478.536z"/>
					<path id="XMLID_485_" style="fill:#FFFFFF;" d="M252.322,472.654c-0.265-0.044-0.477-0.068-0.777-0.068
						c-0.279,0-0.626,0.022-1.088,0.07c-0.465,0.049-0.982,0.171-1.583,0.373c-0.842,0.282-1.604,0.725-2.204,1.279l-0.02,0.02
						c-0.089,0.081-0.275,0.254-0.488,0.525c-0.025,0.037-0.408,0.578-0.709,1.407c-0.226,0.622-0.216,1.527-0.216,1.537v0.002
						c0,0.212,0.013,0.423,0.036,0.632c0,0.005,0,0.008,0.001,0.011c0.003,0.027,0.007,0.053,0.01,0.08
						c0.019,0.143,0.043,0.291,0.074,0.438c0.438,0.112,3.048,0.721,5.967,0.314c1.829-0.255,3.218-0.795,4.061-1.204
						c0.701-0.34,1.151-0.647,1.325-0.773c-0.173-0.643-0.651-1.65-1.089-2.279C254.367,473.228,253.016,472.768,252.322,472.654z
						 M248.679,477.912c-0.972,0-1.759-0.786-1.759-1.759c0-0.972,0.788-1.761,1.759-1.761c0.973,0,1.761,0.789,1.761,1.761
						C250.439,477.126,249.651,477.912,248.679,477.912z M253.828,476.615c-0.601,0-1.088-0.488-1.088-1.09
						c0-0.602,0.487-1.089,1.088-1.089s1.09,0.487,1.09,1.089C254.918,476.127,254.429,476.615,253.828,476.615z"/>
				</g>
			</g>
		</g>
	</g>
</g>
</svg>
